<svg width="362" height="185" viewBox="0 0 362 185" fill="none" xmlns="http://www.w3.org/2000/svg">
<path d="M212.875 83.3778C210.626 83.3778 208.701 82.9325 207.099 82.0419C205.498 81.1423 204.27 79.8918 203.415 78.2905C202.561 76.6802 202.134 74.8134 202.134 72.6903C202.134 70.5672 202.561 68.705 203.415 67.1037C204.27 65.4934 205.498 64.2429 207.099 63.3523C208.701 62.4527 210.626 62.0028 212.875 62.0028C215.124 62.0028 217.049 62.4527 218.651 63.3523C220.252 64.2429 221.48 65.4934 222.335 67.1037C223.189 68.705 223.616 70.5672 223.616 72.6903C223.616 74.8134 223.189 76.6802 222.335 78.2905C221.48 79.8918 220.252 81.1423 218.651 82.0419C217.049 82.9325 215.124 83.3778 212.875 83.3778ZM212.929 77.8722C213.559 77.8722 214.103 77.6607 214.562 77.2379C215.021 76.8151 215.376 76.2124 215.628 75.4297C215.88 74.647 216.006 73.7159 216.006 72.6364C216.006 71.5478 215.88 70.6167 215.628 69.843C215.376 69.0604 215.021 68.4576 214.562 68.0348C214.103 67.612 213.559 67.4006 212.929 67.4006C212.263 67.4006 211.692 67.612 211.215 68.0348C210.738 68.4576 210.374 69.0604 210.122 69.843C209.87 70.6167 209.744 71.5478 209.744 72.6364C209.744 73.7159 209.87 74.647 210.122 75.4297C210.374 76.2124 210.738 76.8151 211.215 77.2379C211.692 77.6607 212.263 77.8722 212.929 77.8722ZM239 62.2727V67.6705H225.344V62.2727H239ZM227.989 57.3068H235.438V76.3338C235.438 76.6217 235.487 76.8646 235.586 77.0625C235.685 77.2514 235.838 77.3954 236.045 77.4943C236.252 77.5843 236.517 77.6293 236.841 77.6293C237.066 77.6293 237.327 77.6023 237.624 77.5483C237.929 77.4943 238.154 77.4493 238.298 77.4134L239.378 82.6491C239.045 82.7481 238.568 82.8696 237.947 83.0135C237.336 83.1574 236.607 83.2519 235.761 83.2969C234.052 83.3868 232.617 83.2114 231.457 82.7706C230.296 82.3208 229.424 81.6146 228.839 80.652C228.254 79.6894 227.971 78.4839 227.989 77.0355V57.3068ZM242.04 90.7727V62.2727H249.434V65.8892H249.596C249.866 65.1875 250.262 64.5443 250.784 63.9595C251.306 63.3658 251.953 62.8935 252.727 62.5426C253.501 62.1828 254.4 62.0028 255.426 62.0028C256.793 62.0028 258.093 62.3672 259.326 63.0959C260.567 63.8246 261.575 64.9716 262.349 66.5369C263.131 68.1023 263.523 70.1354 263.523 72.6364C263.523 75.0294 263.149 77.013 262.403 78.5874C261.665 80.1617 260.675 81.3357 259.434 82.1094C258.201 82.883 256.847 83.2699 255.372 83.2699C254.4 83.2699 253.532 83.1125 252.768 82.7976C252.012 82.4737 251.364 82.0374 250.824 81.4886C250.294 80.9309 249.884 80.3011 249.596 79.5994H249.488V90.7727H242.04ZM249.327 72.6364C249.327 73.6439 249.457 74.5166 249.718 75.2543C249.988 75.983 250.366 76.5497 250.851 76.9545C251.346 77.3504 251.935 77.5483 252.619 77.5483C253.303 77.5483 253.883 77.3549 254.36 76.968C254.846 76.5722 255.215 76.0099 255.466 75.2812C255.727 74.5436 255.858 73.6619 255.858 72.6364C255.858 71.6108 255.727 70.7337 255.466 70.005C255.215 69.2673 254.846 68.705 254.36 68.3182C253.883 67.9223 253.303 67.7244 252.619 67.7244C251.935 67.7244 251.346 67.9223 250.851 68.3182C250.366 68.705 249.988 69.2673 249.718 70.005C249.457 70.7337 249.327 71.6108 249.327 72.6364ZM285.589 69.0199H278.734C278.698 68.5971 278.55 68.2327 278.289 67.9268C278.028 67.621 277.69 67.3871 277.277 67.2251C276.872 67.0542 276.422 66.9688 275.927 66.9688C275.288 66.9688 274.74 67.0857 274.281 67.3196C273.822 67.5535 273.597 67.8864 273.606 68.3182C273.597 68.6241 273.728 68.9074 273.998 69.1683C274.276 69.4292 274.812 69.6316 275.603 69.7756L279.814 70.5312C281.937 70.9181 283.516 71.5703 284.55 72.4879C285.594 73.3965 286.12 74.6155 286.129 76.1449C286.12 77.6203 285.679 78.9022 284.806 79.9908C283.943 81.0703 282.76 81.907 281.257 82.5007C279.764 83.0855 278.059 83.3778 276.143 83.3778C272.976 83.3778 270.498 82.7301 268.708 81.4347C266.926 80.1392 265.932 78.4299 265.725 76.3068H273.12C273.219 76.9635 273.543 77.4718 274.092 77.8317C274.65 78.1825 275.351 78.358 276.197 78.358C276.881 78.358 277.443 78.241 277.884 78.0071C278.334 77.7732 278.563 77.4403 278.572 77.0085C278.563 76.6127 278.365 76.2978 277.978 76.0639C277.6 75.83 277.007 75.6411 276.197 75.4972L272.527 74.8494C270.413 74.4806 268.829 73.7789 267.777 72.7443C266.724 71.7098 266.202 70.3783 266.211 68.75C266.202 67.3106 266.58 66.0916 267.345 65.093C268.118 64.0855 269.221 63.3208 270.651 62.799C272.09 62.2682 273.795 62.0028 275.765 62.0028C278.761 62.0028 281.123 62.6236 282.85 63.8651C284.586 65.1065 285.499 66.8248 285.589 69.0199ZM293.517 90.7727C292.662 90.7727 291.848 90.7053 291.075 90.5703C290.301 90.4444 289.622 90.2689 289.037 90.044L290.656 84.7543C291.268 84.9702 291.826 85.1096 292.33 85.1726C292.842 85.2356 293.279 85.1996 293.638 85.0646C294.007 84.9297 294.273 84.6733 294.435 84.2955L294.597 83.9176L287.31 62.2727H295.082L298.429 76.6307H298.645L302.045 62.2727H309.872L302.315 84.7273C301.938 85.8698 301.389 86.8954 300.669 87.804C299.958 88.7216 299.023 89.4458 297.862 89.9766C296.702 90.5073 295.253 90.7727 293.517 90.7727Z" fill="white"/>
<path d="M210.963 110.909C210.963 111.996 210.764 112.931 210.366 113.713C209.969 114.492 209.424 115.092 208.731 115.513C208.041 115.93 207.258 116.139 206.379 116.139C205.498 116.139 204.71 115.93 204.018 115.513C203.328 115.092 202.785 114.49 202.387 113.708C201.989 112.926 201.79 111.993 201.79 110.909C201.79 109.822 201.989 108.889 202.387 108.11C202.785 107.328 203.328 106.728 204.018 106.31C204.71 105.889 205.498 105.679 206.379 105.679C207.258 105.679 208.041 105.889 208.731 106.31C209.424 106.728 209.969 107.328 210.366 108.11C210.764 108.889 210.963 109.822 210.963 110.909ZM209.442 110.909C209.442 110.08 209.308 109.383 209.039 108.816C208.774 108.246 208.409 107.815 207.945 107.523C207.485 107.228 206.963 107.081 206.379 107.081C205.793 107.081 205.269 107.228 204.808 107.523C204.348 107.815 203.983 108.246 203.714 108.816C203.449 109.383 203.317 110.08 203.317 110.909C203.317 111.738 203.449 112.437 203.714 113.007C203.983 113.574 204.348 114.005 204.808 114.3C205.269 114.591 205.793 114.737 206.379 114.737C206.963 114.737 207.485 114.591 207.945 114.3C208.409 114.005 208.774 113.574 209.039 113.007C209.308 112.437 209.442 111.738 209.442 110.909ZM217.596 112.833V108.364H219.088V116H217.626V114.678H217.547C217.371 115.085 217.089 115.425 216.702 115.697C216.317 115.965 215.838 116.099 215.265 116.099C214.774 116.099 214.34 115.992 213.962 115.776C213.588 115.558 213.293 115.234 213.077 114.807C212.865 114.379 212.759 113.851 212.759 113.221V108.364H214.246V113.042C214.246 113.562 214.39 113.977 214.678 114.285C214.966 114.593 215.341 114.747 215.802 114.747C216.08 114.747 216.357 114.678 216.632 114.538C216.91 114.399 217.141 114.189 217.323 113.907C217.509 113.625 217.6 113.267 217.596 112.833ZM224.65 108.364V109.557H220.479V108.364H224.65ZM221.597 106.534H223.084V113.758C223.084 114.046 223.127 114.263 223.213 114.409C223.299 114.552 223.41 114.649 223.546 114.702C223.685 114.752 223.836 114.777 223.999 114.777C224.118 114.777 224.222 114.769 224.312 114.752C224.401 114.736 224.471 114.722 224.521 114.712L224.789 115.94C224.703 115.973 224.58 116.007 224.421 116.04C224.262 116.076 224.063 116.096 223.825 116.099C223.433 116.106 223.069 116.036 222.731 115.891C222.393 115.745 222.119 115.519 221.911 115.214C221.702 114.91 221.597 114.527 221.597 114.066V106.534ZM227.945 105.818V116H226.458V105.818H227.945ZM229.945 116V108.364H231.431V116H229.945ZM230.695 107.185C230.437 107.185 230.215 107.099 230.029 106.927C229.847 106.751 229.756 106.542 229.756 106.3C229.756 106.055 229.847 105.846 230.029 105.674C230.215 105.498 230.437 105.411 230.695 105.411C230.954 105.411 231.174 105.498 231.357 105.674C231.542 105.846 231.635 106.055 231.635 106.3C231.635 106.542 231.542 106.751 231.357 106.927C231.174 107.099 230.954 107.185 230.695 107.185ZM236.722 116.154C235.97 116.154 235.322 115.993 234.778 115.672C234.238 115.347 233.82 114.891 233.525 114.305C233.234 113.715 233.088 113.024 233.088 112.232C233.088 111.449 233.234 110.76 233.525 110.163C233.82 109.567 234.231 109.101 234.758 108.766C235.289 108.432 235.908 108.264 236.618 108.264C237.049 108.264 237.466 108.335 237.871 108.478C238.275 108.621 238.638 108.844 238.959 109.149C239.281 109.454 239.534 109.85 239.72 110.337C239.906 110.821 239.998 111.41 239.998 112.102V112.629H233.928V111.516H238.542C238.542 111.125 238.462 110.778 238.303 110.477C238.144 110.172 237.92 109.931 237.632 109.756C237.347 109.58 237.012 109.492 236.628 109.492C236.21 109.492 235.845 109.595 235.534 109.8C235.226 110.003 234.987 110.268 234.818 110.596C234.652 110.921 234.569 111.274 234.569 111.655V112.525C234.569 113.035 234.659 113.469 234.838 113.827C235.02 114.185 235.274 114.459 235.599 114.648C235.923 114.833 236.303 114.926 236.737 114.926C237.019 114.926 237.276 114.886 237.508 114.807C237.74 114.724 237.94 114.601 238.109 114.439C238.278 114.277 238.407 114.076 238.497 113.837L239.904 114.091C239.791 114.505 239.589 114.868 239.297 115.18C239.009 115.488 238.646 115.728 238.209 115.901C237.774 116.07 237.279 116.154 236.722 116.154ZM241.648 116V108.364H243.085V109.577H243.164C243.303 109.166 243.549 108.843 243.9 108.607C244.254 108.369 244.656 108.249 245.103 108.249C245.196 108.249 245.305 108.253 245.431 108.259C245.56 108.266 245.661 108.274 245.734 108.284V109.706C245.675 109.689 245.569 109.671 245.416 109.651C245.264 109.628 245.111 109.616 244.959 109.616C244.607 109.616 244.294 109.691 244.019 109.84C243.747 109.986 243.532 110.19 243.373 110.452C243.214 110.71 243.134 111.005 243.134 111.337V116H241.648ZM253.585 116.149C252.968 116.149 252.418 115.992 251.934 115.677C251.453 115.359 251.076 114.906 250.8 114.32C250.529 113.73 250.393 113.022 250.393 112.197C250.393 111.371 250.53 110.665 250.805 110.079C251.084 109.492 251.465 109.043 251.949 108.732C252.433 108.42 252.981 108.264 253.594 108.264C254.068 108.264 254.45 108.344 254.738 108.503C255.03 108.659 255.255 108.841 255.414 109.05C255.576 109.259 255.702 109.442 255.792 109.602H255.881V105.818H257.368V116H255.916V114.812H255.792C255.702 114.974 255.573 115.16 255.404 115.369C255.238 115.577 255.01 115.76 254.718 115.915C254.426 116.071 254.049 116.149 253.585 116.149ZM253.913 114.881C254.34 114.881 254.701 114.769 254.996 114.543C255.295 114.315 255.52 113.998 255.673 113.594C255.828 113.189 255.906 112.719 255.906 112.182C255.906 111.652 255.83 111.187 255.678 110.79C255.525 110.392 255.301 110.082 255.006 109.86C254.711 109.638 254.347 109.527 253.913 109.527C253.465 109.527 253.092 109.643 252.794 109.875C252.496 110.107 252.27 110.424 252.118 110.825C251.969 111.226 251.894 111.678 251.894 112.182C251.894 112.692 251.97 113.151 252.123 113.559C252.275 113.967 252.501 114.29 252.799 114.528C253.101 114.764 253.472 114.881 253.913 114.881ZM262.781 116.154C262.028 116.154 261.38 115.993 260.837 115.672C260.297 115.347 259.879 114.891 259.584 114.305C259.292 113.715 259.146 113.024 259.146 112.232C259.146 111.449 259.292 110.76 259.584 110.163C259.879 109.567 260.29 109.101 260.817 108.766C261.347 108.432 261.967 108.264 262.676 108.264C263.107 108.264 263.525 108.335 263.929 108.478C264.334 108.621 264.696 108.844 265.018 109.149C265.339 109.454 265.593 109.85 265.779 110.337C265.964 110.821 266.057 111.41 266.057 112.102V112.629H259.987V111.516H264.6C264.6 111.125 264.521 110.778 264.362 110.477C264.203 110.172 263.979 109.931 263.691 109.756C263.405 109.58 263.071 109.492 262.686 109.492C262.269 109.492 261.904 109.595 261.593 109.8C261.284 110.003 261.046 110.268 260.877 110.596C260.711 110.921 260.628 111.274 260.628 111.655V112.525C260.628 113.035 260.718 113.469 260.896 113.827C261.079 114.185 261.332 114.459 261.657 114.648C261.982 114.833 262.361 114.926 262.796 114.926C263.077 114.926 263.334 114.886 263.566 114.807C263.798 114.724 263.999 114.601 264.168 114.439C264.337 114.277 264.466 114.076 264.556 113.837L265.963 114.091C265.85 114.505 265.648 114.868 265.356 115.18C265.068 115.488 264.705 115.728 264.267 115.901C263.833 116.07 263.338 116.154 262.781 116.154ZM271.271 108.364V109.557H267.1V108.364H271.271ZM268.218 106.534H269.705V113.758C269.705 114.046 269.748 114.263 269.834 114.409C269.92 114.552 270.031 114.649 270.167 114.702C270.306 114.752 270.457 114.777 270.62 114.777C270.739 114.777 270.843 114.769 270.933 114.752C271.022 114.736 271.092 114.722 271.142 114.712L271.41 115.94C271.324 115.973 271.201 116.007 271.042 116.04C270.883 116.076 270.684 116.096 270.446 116.099C270.055 116.106 269.69 116.036 269.352 115.891C269.014 115.745 268.74 115.519 268.532 115.214C268.323 114.91 268.218 114.527 268.218 114.066V106.534ZM276.124 116.154C275.372 116.154 274.724 115.993 274.181 115.672C273.64 115.347 273.223 114.891 272.928 114.305C272.636 113.715 272.49 113.024 272.49 112.232C272.49 111.449 272.636 110.76 272.928 110.163C273.223 109.567 273.634 109.101 274.161 108.766C274.691 108.432 275.311 108.264 276.02 108.264C276.451 108.264 276.869 108.335 277.273 108.478C277.677 108.621 278.04 108.844 278.362 109.149C278.683 109.454 278.937 109.85 279.122 110.337C279.308 110.821 279.401 111.41 279.401 112.102V112.629H273.33V111.516H277.944C277.944 111.125 277.865 110.778 277.705 110.477C277.546 110.172 277.323 109.931 277.034 109.756C276.749 109.58 276.414 109.492 276.03 109.492C275.612 109.492 275.248 109.595 274.936 109.8C274.628 110.003 274.389 110.268 274.22 110.596C274.055 110.921 273.972 111.274 273.972 111.655V112.525C273.972 113.035 274.061 113.469 274.24 113.827C274.423 114.185 274.676 114.459 275.001 114.648C275.326 114.833 275.705 114.926 276.139 114.926C276.421 114.926 276.678 114.886 276.91 114.807C277.142 114.724 277.343 114.601 277.512 114.439C277.681 114.277 277.81 114.076 277.899 113.837L279.306 114.091C279.194 114.505 278.991 114.868 278.7 115.18C278.411 115.488 278.048 115.728 277.611 115.901C277.177 116.07 276.681 116.154 276.124 116.154ZM284.267 116.154C283.528 116.154 282.891 115.987 282.358 115.652C281.827 115.314 281.42 114.848 281.135 114.255C280.85 113.662 280.707 112.982 280.707 112.217C280.707 111.441 280.853 110.757 281.145 110.163C281.436 109.567 281.847 109.101 282.377 108.766C282.908 108.432 283.533 108.264 284.252 108.264C284.832 108.264 285.349 108.372 285.803 108.587C286.257 108.799 286.623 109.098 286.902 109.482C287.183 109.867 287.351 110.316 287.404 110.83H285.957C285.877 110.472 285.695 110.163 285.41 109.905C285.128 109.646 284.751 109.517 284.277 109.517C283.862 109.517 283.499 109.626 283.188 109.845C282.88 110.061 282.639 110.369 282.467 110.77C282.295 111.168 282.208 111.638 282.208 112.182C282.208 112.739 282.293 113.219 282.462 113.624C282.631 114.028 282.87 114.341 283.178 114.563C283.489 114.785 283.856 114.896 284.277 114.896C284.558 114.896 284.814 114.845 285.042 114.742C285.274 114.636 285.468 114.485 285.624 114.29C285.783 114.094 285.894 113.859 285.957 113.584H287.404C287.351 114.078 287.19 114.518 286.922 114.906C286.653 115.294 286.293 115.599 285.843 115.821C285.395 116.043 284.87 116.154 284.267 116.154ZM292.558 108.364V109.557H288.387V108.364H292.558ZM289.506 106.534H290.992V113.758C290.992 114.046 291.035 114.263 291.121 114.409C291.207 114.552 291.318 114.649 291.454 114.702C291.594 114.752 291.744 114.777 291.907 114.777C292.026 114.777 292.131 114.769 292.22 114.752C292.309 114.736 292.379 114.722 292.429 114.712L292.697 115.94C292.611 115.973 292.488 116.007 292.329 116.04C292.17 116.076 291.971 116.096 291.733 116.099C291.342 116.106 290.977 116.036 290.639 115.891C290.301 115.745 290.028 115.519 289.819 115.214C289.61 114.91 289.506 114.527 289.506 114.066V106.534ZM294.202 116V108.364H295.689V116H294.202ZM294.953 107.185C294.695 107.185 294.473 107.099 294.287 106.927C294.105 106.751 294.013 106.542 294.013 106.3C294.013 106.055 294.105 105.846 294.287 105.674C294.473 105.498 294.695 105.411 294.953 105.411C295.212 105.411 295.432 105.498 295.614 105.674C295.8 105.846 295.893 106.055 295.893 106.3C295.893 106.542 295.8 106.751 295.614 106.927C295.432 107.099 295.212 107.185 294.953 107.185ZM300.905 116.154C300.189 116.154 299.565 115.99 299.031 115.662C298.497 115.334 298.083 114.875 297.788 114.285C297.493 113.695 297.346 113.005 297.346 112.217C297.346 111.424 297.493 110.732 297.788 110.138C298.083 109.545 298.497 109.085 299.031 108.756C299.565 108.428 300.189 108.264 300.905 108.264C301.621 108.264 302.246 108.428 302.78 108.756C303.313 109.085 303.728 109.545 304.023 110.138C304.318 110.732 304.465 111.424 304.465 112.217C304.465 113.005 304.318 113.695 304.023 114.285C303.728 114.875 303.313 115.334 302.78 115.662C302.246 115.99 301.621 116.154 300.905 116.154ZM300.91 114.906C301.374 114.906 301.759 114.784 302.064 114.538C302.369 114.293 302.594 113.967 302.74 113.559C302.889 113.151 302.964 112.702 302.964 112.212C302.964 111.724 302.889 111.277 302.74 110.869C302.594 110.458 302.369 110.129 302.064 109.88C301.759 109.631 301.374 109.507 300.91 109.507C300.443 109.507 300.055 109.631 299.747 109.88C299.442 110.129 299.215 110.458 299.066 110.869C298.92 111.277 298.847 111.724 298.847 112.212C298.847 112.702 298.92 113.151 299.066 113.559C299.215 113.967 299.442 114.293 299.747 114.538C300.055 114.784 300.443 114.906 300.91 114.906ZM307.611 111.466V116H306.124V108.364H307.551V109.607H307.646C307.821 109.202 308.096 108.877 308.471 108.632C308.849 108.387 309.324 108.264 309.898 108.264C310.418 108.264 310.874 108.374 311.265 108.592C311.656 108.808 311.959 109.129 312.175 109.557C312.39 109.984 312.498 110.513 312.498 111.143V116H311.011V111.322C311.011 110.768 310.867 110.336 310.579 110.024C310.29 109.709 309.894 109.552 309.391 109.552C309.046 109.552 308.739 109.626 308.471 109.776C308.206 109.925 307.995 110.143 307.839 110.432C307.687 110.717 307.611 111.062 307.611 111.466ZM321.761 108.364V109.557H317.59V108.364H321.761ZM318.709 106.534H320.195V113.758C320.195 114.046 320.238 114.263 320.324 114.409C320.411 114.552 320.522 114.649 320.657 114.702C320.797 114.752 320.948 114.777 321.11 114.777C321.229 114.777 321.334 114.769 321.423 114.752C321.513 114.736 321.582 114.722 321.632 114.712L321.9 115.94C321.814 115.973 321.692 116.007 321.532 116.04C321.373 116.076 321.175 116.096 320.936 116.099C320.545 116.106 320.18 116.036 319.842 115.891C319.504 115.745 319.231 115.519 319.022 115.214C318.813 114.91 318.709 114.527 318.709 114.066V106.534ZM326.54 116.154C325.824 116.154 325.199 115.99 324.666 115.662C324.132 115.334 323.718 114.875 323.423 114.285C323.128 113.695 322.98 113.005 322.98 112.217C322.98 111.424 323.128 110.732 323.423 110.138C323.718 109.545 324.132 109.085 324.666 108.756C325.199 108.428 325.824 108.264 326.54 108.264C327.256 108.264 327.881 108.428 328.414 108.756C328.948 109.085 329.362 109.545 329.657 110.138C329.952 110.732 330.1 111.424 330.1 112.217C330.1 113.005 329.952 113.695 329.657 114.285C329.362 114.875 328.948 115.334 328.414 115.662C327.881 115.99 327.256 116.154 326.54 116.154ZM326.545 114.906C327.009 114.906 327.394 114.784 327.699 114.538C328.003 114.293 328.229 113.967 328.375 113.559C328.524 113.151 328.598 112.702 328.598 112.212C328.598 111.724 328.524 111.277 328.375 110.869C328.229 110.458 328.003 110.129 327.699 109.88C327.394 109.631 327.009 109.507 326.545 109.507C326.078 109.507 325.69 109.631 325.382 109.88C325.077 110.129 324.85 110.458 324.701 110.869C324.555 111.277 324.482 111.724 324.482 112.212C324.482 112.702 324.555 113.151 324.701 113.559C324.85 113.967 325.077 114.293 325.382 114.538C325.69 114.784 326.078 114.906 326.545 114.906ZM334.976 116.154C334.26 116.154 333.635 115.99 333.101 115.662C332.568 115.334 332.153 114.875 331.858 114.285C331.564 113.695 331.416 113.005 331.416 112.217C331.416 111.424 331.564 110.732 331.858 110.138C332.153 109.545 332.568 109.085 333.101 108.756C333.635 108.428 334.26 108.264 334.976 108.264C335.692 108.264 336.316 108.428 336.85 108.756C337.384 109.085 337.798 109.545 338.093 110.138C338.388 110.732 338.535 111.424 338.535 112.217C338.535 113.005 338.388 113.695 338.093 114.285C337.798 114.875 337.384 115.334 336.85 115.662C336.316 115.99 335.692 116.154 334.976 116.154ZM334.981 114.906C335.445 114.906 335.829 114.784 336.134 114.538C336.439 114.293 336.664 113.967 336.81 113.559C336.959 113.151 337.034 112.702 337.034 112.212C337.034 111.724 336.959 111.277 336.81 110.869C336.664 110.458 336.439 110.129 336.134 109.88C335.829 109.631 335.445 109.507 334.981 109.507C334.513 109.507 334.126 109.631 333.817 109.88C333.512 110.129 333.285 110.458 333.136 110.869C332.99 111.277 332.917 111.724 332.917 112.212C332.917 112.702 332.99 113.151 333.136 113.559C333.285 113.967 333.512 114.293 333.817 114.538C334.126 114.784 334.513 114.906 334.981 114.906ZM341.681 105.818V116H340.195V105.818H341.681ZM345.048 113.41L345.038 111.595H345.297L348.339 108.364H350.119L346.649 112.043H346.415L345.048 113.41ZM343.681 116V105.818H345.167V116H343.681ZM348.503 116L345.769 112.371L346.793 111.332L350.328 116H348.503ZM351.474 116V108.364H352.96V116H351.474ZM352.225 107.185C351.966 107.185 351.744 107.099 351.558 106.927C351.376 106.751 351.285 106.542 351.285 106.3C351.285 106.055 351.376 105.846 351.558 105.674C351.744 105.498 351.966 105.411 352.225 105.411C352.483 105.411 352.704 105.498 352.886 105.674C353.071 105.846 353.164 106.055 353.164 106.3C353.164 106.542 353.071 106.751 352.886 106.927C352.704 107.099 352.483 107.185 352.225 107.185ZM358.525 108.364V109.557H354.354V108.364H358.525ZM355.472 106.534H356.959V113.758C356.959 114.046 357.002 114.263 357.088 114.409C357.174 114.552 357.285 114.649 357.421 114.702C357.56 114.752 357.711 114.777 357.874 114.777C357.993 114.777 358.097 114.769 358.187 114.752C358.276 114.736 358.346 114.722 358.396 114.712L358.664 115.94C358.578 115.973 358.455 116.007 358.296 116.04C358.137 116.076 357.938 116.096 357.7 116.099C357.308 116.106 356.944 116.036 356.606 115.891C356.268 115.745 355.994 115.519 355.786 115.214C355.577 114.91 355.472 114.527 355.472 114.066V106.534ZM205.634 125.364V126.557H201.318V125.364H205.634ZM202.501 133V124.479C202.501 124.001 202.606 123.605 202.815 123.29C203.023 122.972 203.3 122.735 203.645 122.58C203.99 122.42 204.364 122.341 204.768 122.341C205.067 122.341 205.322 122.366 205.534 122.415C205.746 122.462 205.904 122.505 206.006 122.545L205.658 123.748C205.589 123.728 205.499 123.705 205.39 123.678C205.281 123.648 205.148 123.634 204.992 123.634C204.631 123.634 204.372 123.723 204.217 123.902C204.064 124.081 203.988 124.339 203.988 124.678V133H202.501ZM210.083 133.154C209.367 133.154 208.742 132.99 208.209 132.662C207.675 132.334 207.261 131.875 206.966 131.285C206.671 130.695 206.523 130.005 206.523 129.217C206.523 128.424 206.671 127.732 206.966 127.138C207.261 126.545 207.675 126.085 208.209 125.756C208.742 125.428 209.367 125.264 210.083 125.264C210.799 125.264 211.424 125.428 211.957 125.756C212.491 126.085 212.905 126.545 213.2 127.138C213.495 127.732 213.643 128.424 213.643 129.217C213.643 130.005 213.495 130.695 213.2 131.285C212.905 131.875 212.491 132.334 211.957 132.662C211.424 132.99 210.799 133.154 210.083 133.154ZM210.088 131.906C210.552 131.906 210.937 131.784 211.241 131.538C211.546 131.293 211.772 130.967 211.918 130.559C212.067 130.151 212.141 129.702 212.141 129.212C212.141 128.724 212.067 128.277 211.918 127.869C211.772 127.458 211.546 127.129 211.241 126.88C210.937 126.631 210.552 126.507 210.088 126.507C209.621 126.507 209.233 126.631 208.925 126.88C208.62 127.129 208.393 127.458 208.244 127.869C208.098 128.277 208.025 128.724 208.025 129.212C208.025 129.702 208.098 130.151 208.244 130.559C208.393 130.967 208.62 131.293 208.925 131.538C209.233 131.784 209.621 131.906 210.088 131.906ZM215.302 133V125.364H216.739V126.577H216.818C216.958 126.166 217.203 125.843 217.554 125.607C217.909 125.369 218.31 125.249 218.757 125.249C218.85 125.249 218.959 125.253 219.085 125.259C219.215 125.266 219.316 125.274 219.389 125.284V126.706C219.329 126.689 219.223 126.671 219.07 126.651C218.918 126.628 218.766 126.616 218.613 126.616C218.262 126.616 217.949 126.691 217.673 126.84C217.402 126.986 217.186 127.19 217.027 127.452C216.868 127.71 216.789 128.005 216.789 128.337V133H215.302ZM224.38 135.864V125.364H225.832V126.602H225.956C226.042 126.442 226.167 126.259 226.329 126.05C226.491 125.841 226.717 125.659 227.005 125.503C227.294 125.344 227.675 125.264 228.149 125.264C228.765 125.264 229.315 125.42 229.799 125.732C230.283 126.043 230.663 126.492 230.938 127.079C231.216 127.665 231.355 128.371 231.355 129.197C231.355 130.022 231.218 130.73 230.943 131.32C230.668 131.906 230.29 132.359 229.809 132.677C229.329 132.992 228.78 133.149 228.164 133.149C227.7 133.149 227.32 133.071 227.025 132.915C226.733 132.76 226.505 132.577 226.339 132.369C226.173 132.16 226.046 131.974 225.956 131.812H225.867V135.864H224.38ZM225.837 129.182C225.837 129.719 225.915 130.189 226.07 130.594C226.226 130.998 226.452 131.315 226.747 131.543C227.042 131.769 227.403 131.881 227.83 131.881C228.275 131.881 228.646 131.764 228.944 131.528C229.242 131.29 229.468 130.967 229.62 130.559C229.776 130.151 229.854 129.692 229.854 129.182C229.854 128.678 229.778 128.226 229.625 127.825C229.476 127.424 229.251 127.107 228.949 126.875C228.651 126.643 228.278 126.527 227.83 126.527C227.4 126.527 227.035 126.638 226.737 126.86C226.442 127.082 226.218 127.392 226.066 127.79C225.913 128.187 225.837 128.652 225.837 129.182ZM238.743 127.228L237.396 127.467C237.339 127.294 237.25 127.13 237.127 126.974C237.008 126.819 236.846 126.691 236.64 126.592C236.435 126.492 236.178 126.442 235.869 126.442C235.449 126.442 235.097 126.537 234.816 126.726C234.534 126.911 234.393 127.152 234.393 127.447C234.393 127.702 234.487 127.907 234.676 128.063C234.865 128.219 235.17 128.347 235.591 128.446L236.804 128.724C237.507 128.887 238.03 129.137 238.375 129.475C238.72 129.813 238.892 130.252 238.892 130.793C238.892 131.25 238.76 131.658 238.494 132.016C238.233 132.37 237.866 132.649 237.396 132.851C236.928 133.053 236.387 133.154 235.77 133.154C234.915 133.154 234.217 132.972 233.677 132.607C233.137 132.239 232.805 131.717 232.683 131.041L234.119 130.822C234.209 131.197 234.393 131.48 234.671 131.673C234.95 131.862 235.313 131.956 235.76 131.956C236.247 131.956 236.637 131.855 236.928 131.653C237.22 131.447 237.366 131.197 237.366 130.902C237.366 130.663 237.276 130.463 237.097 130.3C236.922 130.138 236.652 130.015 236.287 129.933L234.994 129.649C234.282 129.487 233.755 129.228 233.414 128.874C233.075 128.519 232.906 128.07 232.906 127.526C232.906 127.076 233.032 126.681 233.284 126.343C233.536 126.005 233.884 125.741 234.328 125.553C234.772 125.36 235.281 125.264 235.855 125.264C236.68 125.264 237.329 125.443 237.803 125.801C238.277 126.156 238.591 126.631 238.743 127.228ZM241.466 135.864C241.244 135.864 241.042 135.845 240.86 135.809C240.677 135.776 240.542 135.739 240.452 135.7L240.81 134.482C241.082 134.554 241.324 134.586 241.536 134.576C241.748 134.566 241.935 134.487 242.098 134.337C242.263 134.188 242.409 133.945 242.535 133.607L242.719 133.099L239.925 125.364H241.516L243.45 131.29H243.529L245.463 125.364H247.059L243.912 134.019C243.766 134.417 243.581 134.753 243.355 135.028C243.13 135.307 242.862 135.516 242.55 135.655C242.239 135.794 241.877 135.864 241.466 135.864ZM251.413 133.154C250.674 133.154 250.038 132.987 249.504 132.652C248.974 132.314 248.566 131.848 248.281 131.255C247.996 130.662 247.854 129.982 247.854 129.217C247.854 128.441 247.999 127.757 248.291 127.163C248.583 126.567 248.994 126.101 249.524 125.766C250.054 125.432 250.679 125.264 251.398 125.264C251.978 125.264 252.495 125.372 252.949 125.587C253.403 125.799 253.77 126.098 254.048 126.482C254.33 126.867 254.497 127.316 254.55 127.83H253.104C253.024 127.472 252.842 127.163 252.557 126.905C252.275 126.646 251.897 126.517 251.423 126.517C251.009 126.517 250.646 126.626 250.334 126.845C250.026 127.061 249.786 127.369 249.613 127.77C249.441 128.168 249.355 128.638 249.355 129.182C249.355 129.739 249.439 130.219 249.608 130.624C249.778 131.028 250.016 131.341 250.324 131.563C250.636 131.785 251.002 131.896 251.423 131.896C251.705 131.896 251.96 131.845 252.189 131.742C252.421 131.636 252.615 131.485 252.77 131.29C252.93 131.094 253.041 130.859 253.104 130.584H254.55C254.497 131.078 254.336 131.518 254.068 131.906C253.8 132.294 253.44 132.599 252.989 132.821C252.542 133.043 252.016 133.154 251.413 133.154ZM257.626 128.466V133H256.14V122.818H257.607V126.607H257.701C257.88 126.196 258.153 125.869 258.521 125.627C258.889 125.385 259.37 125.264 259.963 125.264C260.487 125.264 260.944 125.372 261.335 125.587C261.73 125.803 262.035 126.124 262.25 126.552C262.469 126.976 262.578 127.506 262.578 128.143V133H261.092V128.322C261.092 127.762 260.947 127.327 260.659 127.019C260.371 126.708 259.97 126.552 259.456 126.552C259.105 126.552 258.79 126.626 258.511 126.776C258.236 126.925 258.019 127.143 257.86 127.432C257.704 127.717 257.626 128.062 257.626 128.466ZM267.778 133.154C267.063 133.154 266.438 132.99 265.904 132.662C265.371 132.334 264.956 131.875 264.661 131.285C264.366 130.695 264.219 130.005 264.219 129.217C264.219 128.424 264.366 127.732 264.661 127.138C264.956 126.545 265.371 126.085 265.904 125.756C266.438 125.428 267.063 125.264 267.778 125.264C268.494 125.264 269.119 125.428 269.653 125.756C270.186 126.085 270.601 126.545 270.896 127.138C271.191 127.732 271.338 128.424 271.338 129.217C271.338 130.005 271.191 130.695 270.896 131.285C270.601 131.875 270.186 132.334 269.653 132.662C269.119 132.99 268.494 133.154 267.778 133.154ZM267.783 131.906C268.247 131.906 268.632 131.784 268.937 131.538C269.242 131.293 269.467 130.967 269.613 130.559C269.762 130.151 269.837 129.702 269.837 129.212C269.837 128.724 269.762 128.277 269.613 127.869C269.467 127.458 269.242 127.129 268.937 126.88C268.632 126.631 268.247 126.507 267.783 126.507C267.316 126.507 266.928 126.631 266.62 126.88C266.315 127.129 266.088 127.458 265.939 127.869C265.793 128.277 265.72 128.724 265.72 129.212C265.72 129.702 265.793 130.151 265.939 130.559C266.088 130.967 266.315 131.293 266.62 131.538C266.928 131.784 267.316 131.906 267.783 131.906ZM274.484 122.818V133H272.997V122.818H274.484ZM279.7 133.154C278.984 133.154 278.36 132.99 277.826 132.662C277.292 132.334 276.878 131.875 276.583 131.285C276.288 130.695 276.141 130.005 276.141 129.217C276.141 128.424 276.288 127.732 276.583 127.138C276.878 126.545 277.292 126.085 277.826 125.756C278.36 125.428 278.984 125.264 279.7 125.264C280.416 125.264 281.041 125.428 281.575 125.756C282.108 126.085 282.522 126.545 282.817 127.138C283.112 127.732 283.26 128.424 283.26 129.217C283.26 130.005 283.112 130.695 282.817 131.285C282.522 131.875 282.108 132.334 281.575 132.662C281.041 132.99 280.416 133.154 279.7 133.154ZM279.705 131.906C280.169 131.906 280.554 131.784 280.859 131.538C281.164 131.293 281.389 130.967 281.535 130.559C281.684 130.151 281.759 129.702 281.759 129.212C281.759 128.724 281.684 128.277 281.535 127.869C281.389 127.458 281.164 127.129 280.859 126.88C280.554 126.631 280.169 126.507 279.705 126.507C279.238 126.507 278.85 126.631 278.542 126.88C278.237 127.129 278.01 127.458 277.861 127.869C277.715 128.277 277.642 128.724 277.642 129.212C277.642 129.702 277.715 130.151 277.861 130.559C278.01 130.967 278.237 131.293 278.542 131.538C278.85 131.784 279.238 131.906 279.705 131.906ZM288.121 136.023C287.514 136.023 286.992 135.943 286.555 135.784C286.121 135.625 285.766 135.415 285.491 135.153C285.216 134.891 285.01 134.604 284.874 134.293L286.152 133.766C286.242 133.911 286.361 134.066 286.51 134.228C286.663 134.394 286.868 134.535 287.127 134.651C287.388 134.767 287.725 134.825 288.136 134.825C288.699 134.825 289.165 134.687 289.533 134.412C289.901 134.14 290.085 133.706 290.085 133.109V131.608H289.99C289.901 131.77 289.771 131.951 289.602 132.15C289.437 132.349 289.208 132.521 288.916 132.667C288.625 132.813 288.245 132.886 287.778 132.886C287.175 132.886 286.631 132.745 286.147 132.463C285.667 132.178 285.285 131.759 285.004 131.205C284.725 130.648 284.586 129.964 284.586 129.152C284.586 128.34 284.724 127.644 284.999 127.064C285.277 126.484 285.658 126.04 286.142 125.732C286.626 125.42 287.175 125.264 287.788 125.264C288.262 125.264 288.645 125.344 288.936 125.503C289.228 125.659 289.455 125.841 289.617 126.05C289.783 126.259 289.911 126.442 290 126.602H290.11V125.364H291.566V133.169C291.566 133.825 291.414 134.364 291.109 134.785C290.804 135.206 290.391 135.517 289.871 135.719C289.354 135.922 288.771 136.023 288.121 136.023ZM288.106 131.653C288.534 131.653 288.895 131.553 289.19 131.354C289.488 131.152 289.713 130.864 289.866 130.489C290.022 130.112 290.1 129.659 290.1 129.132C290.1 128.618 290.023 128.166 289.871 127.775C289.718 127.384 289.495 127.079 289.2 126.86C288.905 126.638 288.54 126.527 288.106 126.527C287.659 126.527 287.286 126.643 286.987 126.875C286.689 127.104 286.464 127.415 286.311 127.81C286.162 128.204 286.088 128.645 286.088 129.132C286.088 129.633 286.164 130.072 286.316 130.45C286.469 130.827 286.694 131.122 286.992 131.335C287.294 131.547 287.665 131.653 288.106 131.653ZM294.499 135.864C294.277 135.864 294.075 135.845 293.893 135.809C293.711 135.776 293.575 135.739 293.485 135.7L293.843 134.482C294.115 134.554 294.357 134.586 294.569 134.576C294.781 134.566 294.968 134.487 295.131 134.337C295.297 134.188 295.442 133.945 295.568 133.607L295.752 133.099L292.958 125.364H294.549L296.483 131.29H296.563L298.497 125.364H300.093L296.945 134.019C296.8 134.417 296.614 134.753 296.389 135.028C296.163 135.307 295.895 135.516 295.583 135.655C295.272 135.794 294.91 135.864 294.499 135.864Z" fill="white"/>
<path d="M187 7L187 176.787" stroke="#D7D7D7"/>
<path d="M29 156.5L29 29" stroke="#D1D1D1" stroke-width="4" stroke-linecap="round" stroke-linejoin="round"/>
<path d="M156.008 158.008C157.112 158.003 158.004 157.105 158 156C157.996 154.895 157.097 154.003 155.992 154.008L156.008 158.008ZM27.0076 158.5L156.008 158.008L155.992 154.008L26.9924 154.5L27.0076 158.5Z" fill="#D1D1D1"/>
<circle cx="48" cy="117.5" r="5" fill="#00F4FF"/>
<circle cx="73" cy="112.5" r="5" fill="#00F4FF"/>
<circle cx="98" cy="107.5" r="5" fill="#00F4FF"/>
<circle cx="123" cy="102.5" r="5" fill="#00F4FF"/>
<circle cx="148.5" cy="48" r="5.5" fill="#DD0525"/>
<path d="M11 168H171M11 138H171M11 108H171M11 78H171M11 48H171M11 18H171" stroke="#D9D9D9" stroke-opacity="0.04" stroke-width="2"/>
</svg>
